<svg xmlns="http://www.w3.org/2000/svg" width="32" height="32" viewBox="0 0 32 32">
  <path id="Vector_6_" data-name="Vector (6)" d="M30.222,16a1.82,1.82,0,0,1-1.268-.512,1.968,1.968,0,0,1-.642-1.266A12.289,12.289,0,0,0,17.778,3.689a2.032,2.032,0,0,1-1.268-.622A1.787,1.787,0,0,1,16,1.778,1.687,1.687,0,0,1,16.533.51,1.453,1.453,0,0,1,17.778.089a15.567,15.567,0,0,1,9.556,4.578,15.567,15.567,0,0,1,4.578,9.556,1.458,1.458,0,0,1-.423,1.244A1.685,1.685,0,0,1,30.222,16ZM22.8,16a1.483,1.483,0,0,1-1.022-.4,2.435,2.435,0,0,1-.667-1.067,5.361,5.361,0,0,0-3.644-3.644,2.436,2.436,0,0,1-1.067-.667A1.539,1.539,0,0,1,16,9.156a1.849,1.849,0,0,1,.622-1.445A1.462,1.462,0,0,1,18,7.333,8.9,8.9,0,0,1,24.667,14a1.443,1.443,0,0,1-.4,1.378A1.915,1.915,0,0,1,22.8,16Zm7.333,16a26.035,26.035,0,0,1-11.179-2.556A33.9,33.9,0,0,1,9.31,22.688a33.9,33.9,0,0,1-6.756-9.644A26.013,26.013,0,0,1,0,1.867,1.823,1.823,0,0,1,1.867,0h7.2a1.707,1.707,0,0,1,1.111.4,1.564,1.564,0,0,1,.578,1.022l1.156,6.222a3.187,3.187,0,0,1-.023,1.134,1.821,1.821,0,0,1-.51.91L7.111,14.044a29.524,29.524,0,0,0,4.667,6,32.523,32.523,0,0,0,6.178,4.844l4.178-4.178a2.482,2.482,0,0,1,1.045-.6A2.886,2.886,0,0,1,24.444,20l6.133,1.244a1.8,1.8,0,0,1,1.022.6,1.622,1.622,0,0,1,.4,1.088v7.2A1.823,1.823,0,0,1,30.133,32ZM5.422,10.667,8.356,7.733l-.8-4.178H3.644q.222,1.822.622,3.6A19.471,19.471,0,0,0,5.422,10.667ZM28.444,28.356V24.444l-4.178-.889-2.933,2.933a26.094,26.094,0,0,0,3.511,1.244A18.7,18.7,0,0,0,28.444,28.356Z" transform="translate(0)" fill="#fff"/>
</svg>
