<?xml version="1.0" encoding="UTF-8"?>
<svg id="Layer_1" data-name="Layer 1" xmlns="http://www.w3.org/2000/svg" viewBox="0 0 60 60">
  <circle id="Ellipse_387" data-name="Ellipse 387" cx="30" cy="30" r="30" style="fill: #0632ad; stroke-width: 0px;"/>
  <path id="Path_5583" data-name="Path 5583" d="m42.6,41.5c2.7-3.3,4.2-7.4,4.2-11.6.2-9.6-7.5-17.5-17.1-17.7-9.6.2-17.2,8.1-17.1,17.7-.2,9.6,7.5,17.5,17.1,17.7,2,0,3.9-.4,5.8-1l9,2.6-1.9-7.7Z" style="fill: #fff; fill-rule: evenodd; stroke-width: 0px;"/>
  <path d="m33.3,26c0-.6-.3-1-.7-1.2s-1-.4-1.6-.4c-1.5-.1-2.2.3-2.3.9-.5,2.8,11.4,1.4,10.1,7.4-.8,3.8-4.9,6.5-10.3,6.7-.3,0-.6,0-.9.1-5,.4-7.7-2.3-7.2-5.9,2.1-.1,4.2-.2,6.3-.3,0,.7.3,1.2.8,1.4.5.3,1.1.4,1.8.4,1.6-.1,2.8-.6,3-1.5.5-2.7-11-.9-9.8-8.2.8-4.2,4.6-5.5,9.6-5,5.6.5,7.6,3,7.5,5.8-2.1-.1-4.2-.1-6.3-.2h0Z" style="fill: #0632ad; fill-rule: evenodd; stroke-width: 0px;"/>
</svg>