<svg xmlns="http://www.w3.org/2000/svg" width="165" height="32.123" viewBox="0 0 165 32.123">
  <g id="Group_19646" data-name="Group 19646" transform="translate(-40.711 -26.446)">
    <path id="Path_6121" data-name="Path 6121" d="M40.71,51.717l.168-.562c1.568-.08,3.158-.173,4.75-.241s3.192-.1,4.81-.156c.015.022.058.061.066.1a2.847,2.847,0,0,0,2.856,2.6,7.63,7.63,0,0,0,4.6-.768,3.228,3.228,0,0,0,1.176-1.162,1.212,1.212,0,0,0-.491-1.694,8.815,8.815,0,0,0-3.138-1.218,41.232,41.232,0,0,1-6.867-2.073,7.951,7.951,0,0,1-3.87-3.255,7.158,7.158,0,0,1-.574-5.107c.882-4.188,3.709-6.347,7.727-7.173a23.965,23.965,0,0,1,7.535-.16,19.114,19.114,0,0,1,6.373,1.675,7.548,7.548,0,0,1,4.4,4.932,22.663,22.663,0,0,1,.343,2.3c-3.291-.1-6.473-.209-9.686-.311-.158-1.7-1.354-2.214-2.735-2.375a14.024,14.024,0,0,0-3.063.007,1.542,1.542,0,0,0-.479,3,26.372,26.372,0,0,0,3.029,1.1c2,.586,4.042,1.043,6.031,1.672a14.169,14.169,0,0,1,3.068,1.4c2.394,1.463,3.1,3.6,2.258,6.291a12.19,12.19,0,0,1-6.22,7.132,17.965,17.965,0,0,1-6.808,2.154c-2,.209-4,.379-6.009.389a10.177,10.177,0,0,1-6.33-1.937,6.927,6.927,0,0,1-2.822-4.942,2.842,2.842,0,0,0-.1-.394V51.714Z" transform="translate(0 -3.167)" fill="#17479e"/>
    <path id="Path_6122" data-name="Path 6122" d="M615.783,58.569c-3.449-.459-6.855-.914-10.294-1.371-.165-1.288-.333-2.579-.5-3.911-1.249-.141-2.474-.28-3.7-.411-1.826-.2-3.648-.386-5.471-.581a10.337,10.337,0,0,0-1.123-.114.6.6,0,0,0-.406.282c-.554.967-1.1,1.937-1.616,2.922a.6.6,0,0,1-.69.362c-2.115-.216-4.232-.411-6.349-.613-1.021-.1-2.044-.194-3.16-.3.406-.668.768-1.279,1.143-1.879q7.708-12.4,15.4-24.818a1.387,1.387,0,0,1,1.237-.615c2.91-.355,5.819-.693,8.729-1.035a.726.726,0,0,1,.1-.01c.992-.024.795-.216.965.715q.948,5.177,1.9,10.352,1.028,5.578,2.064,11.157c.576,3.094,1.164,6.189,1.743,9.283a4.222,4.222,0,0,1,.032.579ZM602.915,36.2c-.036,0-.068,0-.1-.01l-5.221,10.3,6.772.654c-.493-3.729-.97-7.338-1.449-10.948Z" transform="translate(-410.073 0)" fill="#17479e"/>
    <path id="Path_6123" data-name="Path 6123" d="M175.028,66.243a15.086,15.086,0,0,1-7.45-1.672,7.533,7.533,0,0,1-3.977-5.8,13.607,13.607,0,0,1,7.586-14.059,19.321,19.321,0,0,1,7.032-1.952,23.441,23.441,0,0,1,9.458.914,9.563,9.563,0,0,1,5.95,4.662,8.539,8.539,0,0,1,.3,6.794,14.632,14.632,0,0,1-7.737,8.532,22.7,22.7,0,0,1-8.5,2.387c-.89.078-1.782.126-2.669.19Zm5.18-18.34a6.513,6.513,0,0,0-5.5,2.89,9.49,9.49,0,0,0-1.665,6.529,3.51,3.51,0,0,0,2.9,3.243,6.785,6.785,0,0,0,5.28-.931c2.834-1.918,3.862-4.759,3.663-8.058a3.5,3.5,0,0,0-2.526-3.252,15.722,15.722,0,0,0-2.151-.418Z" transform="translate(-92.93 -12.26)" fill="#17479e"/>
    <path id="Path_6124" data-name="Path 6124" d="M295.641,55.327c-.314,1.585-.6,3.019-.882,4.451-.513,2.6-1.028,5.2-1.563,7.8a.53.53,0,0,1-.362.345c-2.645.088-5.289.153-7.936.221-.066,0-.134-.007-.287-.017q2.487-10.975,4.959-21.889c1.04,0,2-.01,2.961,0,1.648.019,3.3.07,4.949.068a.766.766,0,0,1,.788.474q3.081,5.786,6.186,11.553c.061.112.134.219.25.4.284-1.167.559-2.234.8-3.308q1-4.353,1.959-8.709c.061-.27.156-.379.435-.379q4,0,7.995-.017a.975.975,0,0,1,.19.049c-.241,1-.474,2-.722,2.99q-1.221,4.9-2.448,9.806c-.683,2.737-1.376,5.474-2.039,8.216-.09.362-.289.362-.559.362q-3.041,0-6.084-.007c-.617,0-1.356.187-1.821-.085s-.644-1.009-.936-1.548q-2.731-5.068-5.459-10.136c-.092-.175-.2-.343-.374-.644Z" transform="translate(-184.615 -14.979)" fill="#17479e"/>
    <path id="Path_6125" data-name="Path 6125" d="M399.23,66.016c.54-.795,1.043-1.544,1.556-2.287q6.527-9.5,13.053-19.006a.868.868,0,0,1,.783-.44q4.018-.12,8.036-.3c.408-.017.6.068.69.51.578,2.64,1.2,5.272,1.8,7.907q1.6,7,3.2,14.008c.039.165.056.338.1.605l-8.872-.413c-.187-1.016-.391-2-.544-2.995-.046-.311-.165-.4-.455-.406-1-.012-1.993-.046-2.99-.066-1.721-.032-3.439-.044-5.158-.09a.773.773,0,0,0-.788.421q-.74,1.236-1.548,2.428a.792.792,0,0,1-.559.318c-2.664-.034-5.328-.095-7.992-.151a2.358,2.358,0,0,1-.309-.049ZM417.222,50.5c-.068-.015-.136-.029-.2-.046q-2.158,4.222-4.319,8.456h5.683c-.391-2.834-.773-5.622-1.159-8.41Z" transform="translate(-271.374 -13.273)" fill="#17479e"/>
    <path id="Path_6126" data-name="Path 6126" d="M514.372,59.521c1.322-5.882,2.625-11.672,3.935-17.491h-8.121c-.425-1.918-.858-3.875-1.286-5.812l31.157-2.348c-1.116,1.835-2.222,3.666-3.335,5.493-.355.586-.749,1.15-1.089,1.745a.81.81,0,0,1-.79.445c-1.648.024-3.3.063-4.951.107-.737.019-1.475.088-2.214.088-.362,0-.462.168-.527.472q-.624,2.939-1.264,5.87-1.032,4.74-2.066,9.48c-.156.717-.335,1.434-.462,2.158-.058.326-.187.435-.506.413-1.13-.085-2.261-.151-3.391-.233-1.351-.095-2.705-.2-4.057-.3-.323-.024-.644-.056-1.038-.09Z" transform="translate(-354.386 -5.619)" fill="#17479e"/>
  </g>
</svg>
