<svg xmlns="http://www.w3.org/2000/svg" width="160" height="47.408" viewBox="0 0 160 47.408">
  <g id="Google_Play_Store_badge_EN" transform="translate(-0.004 -0.001)">
    <path id="path11" d="M154.077,47.409H5.93A5.943,5.943,0,0,1,0,41.483V5.927A5.943,5.943,0,0,1,5.93,0H154.077A5.943,5.943,0,0,1,160,5.927V41.483a5.943,5.943,0,0,1-5.926,5.926" fill="#100f0d"/>
    <path id="path13" d="M154.077,0H5.93A5.943,5.943,0,0,0,0,5.927V41.483A5.943,5.943,0,0,0,5.93,47.409H154.077A5.943,5.943,0,0,0,160,41.483V5.927A5.943,5.943,0,0,0,154.077,0Zm0,.948a4.984,4.984,0,0,1,4.978,4.978V41.483a4.984,4.984,0,0,1-4.978,4.978H5.93A4.983,4.983,0,0,1,.952,41.483V5.927A4.983,4.983,0,0,1,5.93.949H154.077" fill="#a2a2a1"/>
    <path id="path35" d="M132.821,38.082h2.212V23.264h-2.212Zm19.92-9.479-2.535,6.424h-.076L147.5,28.6h-2.382l3.947,8.978-2.251,4.994h2.306L155.2,28.6ZM140.2,36.4c-.723,0-1.734-.363-1.734-1.258,0-1.144,1.259-1.582,2.344-1.582a3.938,3.938,0,0,1,2.021.5A2.681,2.681,0,0,1,140.2,36.4Zm.268-8.12a4.152,4.152,0,0,0-3.946,2.269l1.963.819A2.1,2.1,0,0,1,140.5,30.28a2.129,2.129,0,0,1,2.325,1.906v.152a4.9,4.9,0,0,0-2.306-.572c-2.117,0-4.27,1.162-4.27,3.336a3.423,3.423,0,0,0,3.679,3.26,3.117,3.117,0,0,0,2.821-1.449h.077v1.144h2.136V32.376c0-2.631-1.965-4.1-4.5-4.1ZM126.8,30.406h-3.146V25.327H126.8a2.54,2.54,0,1,1,0,5.079Zm-.057-7.141h-5.3V38.082h2.211V32.469h3.089a4.609,4.609,0,1,0,0-9.2ZM97.845,36.4a3.066,3.066,0,0,1,0-6.11,2.84,2.84,0,0,1,2.692,3.074A2.817,2.817,0,0,1,97.845,36.4Zm2.539-6.969h-.076a3.493,3.493,0,0,0-2.654-1.126,5.045,5.045,0,0,0,0,10.082,3.438,3.438,0,0,0,2.654-1.145h.076v.725c0,1.929-1.031,2.96-2.692,2.96a2.79,2.79,0,0,1-2.539-1.795l-1.928.8a4.8,4.8,0,0,0,4.468,2.979c2.6,0,4.793-1.528,4.793-5.251v-9.05h-2.1Zm3.629,8.65h2.214V23.264h-2.214Zm5.479-4.888a2.765,2.765,0,0,1,2.635-2.94A1.954,1.954,0,0,1,114,31.322Zm6.874-1.681a4.685,4.685,0,0,0-4.315-3.207,4.791,4.791,0,0,0-4.755,5.041,4.933,4.933,0,0,0,5,5.041,5.016,5.016,0,0,0,4.2-2.234l-1.719-1.146A2.879,2.879,0,0,1,112.3,36.4a2.563,2.563,0,0,1-2.443-1.528l6.739-2.788Zm-53.7-1.661V31.99h5.117a4.462,4.462,0,0,1-1.165,2.692,5.24,5.24,0,0,1-3.952,1.566,5.691,5.691,0,0,1,0-11.38A5.453,5.453,0,0,1,66.524,26.4l1.509-1.509a7.461,7.461,0,0,0-5.366-2.157,7.829,7.829,0,1,0,0,15.657,7.157,7.157,0,0,0,5.461-2.2,7.066,7.066,0,0,0,1.852-5,6.979,6.979,0,0,0-.115-1.336ZM75.8,36.4a3.063,3.063,0,1,1,2.845-3.055A2.916,2.916,0,0,1,75.8,36.4Zm0-8.1a5.041,5.041,0,1,0,5.06,5.041,4.969,4.969,0,0,0-5.06-5.041Zm11.038,8.1a3.063,3.063,0,1,1,2.845-3.055A2.917,2.917,0,0,1,86.836,36.4Zm0-8.1a5.041,5.041,0,1,0,5.06,5.041,4.968,4.968,0,0,0-5.06-5.041" transform="translate(-6.078 -2.525)" fill="#fff"/>
    <path id="path37" d="M26.045,25.9,13.428,39.292l0,.008a3.411,3.411,0,0,0,5.021,2.056l.04-.024,14.2-8.2L26.046,25.9" transform="translate(-1.491 -2.877)" fill="#eb3131"/>
    <path id="path39" d="M40.352,22.889l-.012-.008-6.132-3.555L27.3,25.473,34.232,32.4l6.1-3.519a3.41,3.41,0,0,0,.02-6" transform="translate(-3.032 -2.147)" fill="#f6b60b"/>
    <path id="path41" d="M13.412,12.37a3.34,3.34,0,0,0-.116.877V36.913a3.3,3.3,0,0,0,.116.876l13.053-13.05L13.412,12.37" transform="translate(-1.476 -1.374)" fill="#5778c5"/>
    <path id="path43" d="M26.139,24.763l6.531-6.529L18.483,10.009a3.414,3.414,0,0,0-5.055,2.042.01.01,0,0,0,0,0l12.712,12.71" transform="translate(-1.491 -1.058)" fill="#3bad49"/>
    <path id="path33" d="M62.3,12.607H58.84v.856h2.591a2.382,2.382,0,0,1-.817,1.645,2.657,2.657,0,0,1-1.774.6,2.689,2.689,0,0,1-1.972-.807,2.828,2.828,0,0,1-.8-2.043,2.828,2.828,0,0,1,.8-2.043,2.688,2.688,0,0,1,1.972-.806,2.824,2.824,0,0,1,1.126.219,2.177,2.177,0,0,1,.846.628l.657-.657a2.959,2.959,0,0,0-1.145-.787,3.908,3.908,0,0,0-1.485-.28,3.674,3.674,0,0,0-3.706,3.726,3.674,3.674,0,0,0,3.706,3.726,3.42,3.42,0,0,0,2.62-1.056,3.231,3.231,0,0,0,.887-2.381,3.514,3.514,0,0,0-.05-.537Zm1.339-3.319v7.134H67.8v-.876H64.554V13.284h2.93v-.856h-2.93V10.167H67.8V9.289Zm10,.878V9.289h-4.9v.878h1.993v6.256h.917V10.167Zm4.438-.878h-.917v7.134h.917Zm6.051.878V9.289h-4.9v.878h1.993v6.256h.917V10.167Zm9.25.05a3.691,3.691,0,0,0-5.22-.011,3.6,3.6,0,0,0-1.055,2.65,3.6,3.6,0,0,0,1.055,2.65,3.7,3.7,0,0,0,5.22,0,3.6,3.6,0,0,0,1.056-2.65,3.586,3.586,0,0,0-1.056-2.639Zm-4.563.6a2.626,2.626,0,0,1,1.954-.806,2.59,2.59,0,0,1,1.943.806,2.773,2.773,0,0,1,.787,2.043,2.771,2.771,0,0,1-.787,2.043,2.592,2.592,0,0,1-1.943.807,2.628,2.628,0,0,1-1.954-.807,2.825,2.825,0,0,1-.776-2.043A2.828,2.828,0,0,1,88.818,10.813Zm7.8,1.167L96.575,10.6h.039l3.626,5.819h.957V9.289h-.917v4.174l.039,1.376h-.039l-3.467-5.55H95.7v7.134h.917Z" transform="translate(-6.124 -1.014)" fill="#fff" stroke="#fff" stroke-width="0.267"/>
  </g>
</svg>
