<svg xmlns="http://www.w3.org/2000/svg" width="320" height="62.299" viewBox="0 0 320 62.299">
  <g id="Group_19646" data-name="Group 19646" transform="translate(-40.71 -26.446)">
    <path id="Path_6121" data-name="Path 6121" d="M40.71,71.525c.1-.349.207-.693.325-1.089,3.041-.156,6.124-.335,9.211-.467s6.19-.2,9.329-.3c.028.042.113.118.127.2.377,3.3,2.6,4.686,5.539,5.039a14.8,14.8,0,0,0,8.919-1.49,6.261,6.261,0,0,0,2.282-2.253c.721-1.221.283-2.371-.952-3.286-1.81-1.339-3.974-1.805-6.086-2.362-4.488-1.179-9.065-2.07-13.317-4.021-3.078-1.414-5.8-3.267-7.5-6.312a13.881,13.881,0,0,1-1.113-9.9c1.711-8.122,7.194-12.309,14.986-13.911a46.477,46.477,0,0,1,14.614-.311A37.07,37.07,0,0,1,89.431,34.3c4.144,2.022,7.349,4.926,8.542,9.565a43.95,43.95,0,0,1,.665,4.464c-6.383-.2-12.554-.405-18.786-.6-.306-3.29-2.626-4.295-5.3-4.606a27.2,27.2,0,0,0-5.94.014,2.991,2.991,0,0,0-.929,5.817,51.145,51.145,0,0,0,5.874,2.14c3.884,1.136,7.84,2.022,11.7,3.243A27.48,27.48,0,0,1,91.2,57.062c4.643,2.838,6.006,6.972,4.379,12.2-1.994,6.4-6.364,10.7-12.063,13.831a34.841,34.841,0,0,1-13.2,4.177c-3.87.405-7.764.735-11.653.754a19.737,19.737,0,0,1-12.276-3.757,13.435,13.435,0,0,1-5.473-9.584,5.511,5.511,0,0,0-.2-.764v-2.4Z" transform="translate(0 -2.212)" fill="#17479e"/>
    <path id="Path_6122" data-name="Path 6122" d="M647.077,88.745c-6.689-.891-13.294-1.773-19.964-2.659-.32-2.5-.646-5-.976-7.585-2.423-.273-4.8-.542-7.175-.8-3.54-.382-7.076-.75-10.611-1.127a20.049,20.049,0,0,0-2.178-.222,1.158,1.158,0,0,0-.787.547c-1.075,1.876-2.126,3.757-3.135,5.666a1.161,1.161,0,0,1-1.339.7c-4.1-.42-8.207-.8-12.313-1.188-1.98-.189-3.965-.377-6.128-.58.787-1.3,1.49-2.48,2.216-3.644Q599.634,53.8,614.554,29.729a2.69,2.69,0,0,1,2.4-1.193c5.643-.688,11.286-1.344,16.928-2.008a1.409,1.409,0,0,1,.2-.019c1.923-.047,1.541-.42,1.872,1.386q1.838,10.041,3.682,20.078,1.994,10.819,4,21.638c1.117,6,2.258,12,3.38,18a8.19,8.19,0,0,1,.061,1.122ZM622.121,45.37c-.071-.009-.132-.009-.2-.019-3.352,6.614-6.7,13.228-10.126,19.983,4.426.429,8.73.844,13.133,1.268-.957-7.231-1.881-14.232-2.809-21.232Z" transform="translate(-286.367)" fill="#17479e"/>
    <path id="Path_6123" data-name="Path 6123" d="M185.873,88.411c-5.054-.061-9.966-.707-14.449-3.243a14.609,14.609,0,0,1-7.712-11.243,26.39,26.39,0,0,1,14.713-27.267,37.471,37.471,0,0,1,13.638-3.785,45.461,45.461,0,0,1,18.343,1.773c4.922,1.612,9.1,4.257,11.54,9.042,2.187,4.285,2.051,8.726.589,13.176-2.541,7.731-7.943,12.921-15.005,16.547a44.029,44.029,0,0,1-16.485,4.629c-1.725.151-3.455.245-5.176.368Zm10.046-35.568a12.632,12.632,0,0,0-10.663,5.605,18.4,18.4,0,0,0-3.229,12.662,6.808,6.808,0,0,0,5.624,6.289,13.159,13.159,0,0,0,10.239-1.806c5.5-3.719,7.491-9.23,7.1-15.627a6.788,6.788,0,0,0-4.9-6.308,30.492,30.492,0,0,0-4.172-.811Z" transform="translate(-64.896 -8.562)" fill="#17479e"/>
    <path id="Path_6124" data-name="Path 6124" d="M306,63.868c-.608,3.074-1.155,5.855-1.711,8.632-.995,5.044-1.994,10.088-3.031,15.128a1.028,1.028,0,0,1-.7.669c-5.129.17-10.258.3-15.392.429-.127,0-.259-.014-.556-.033q4.823-21.284,9.617-42.451c2.018,0,3.88-.019,5.742,0,3.2.038,6.4.137,9.6.132a1.485,1.485,0,0,1,1.527.919q5.975,11.222,12,22.406c.118.217.259.424.485.783.552-2.263,1.084-4.332,1.56-6.416q1.931-8.443,3.8-16.891c.118-.523.3-.735.844-.735q7.75-.007,15.5-.033a1.89,1.89,0,0,1,.368.094c-.467,1.938-.919,3.87-1.4,5.8q-2.369,9.511-4.747,19.017c-1.325,5.308-2.668,10.616-3.955,15.934-.174.7-.561.7-1.084.7q-5.9-.007-11.8-.014c-1.2,0-2.631.363-3.531-.165s-1.249-1.956-1.815-3q-5.3-9.829-10.588-19.658c-.179-.339-.387-.665-.726-1.249Z" transform="translate(-128.922 -10.46)" fill="#17479e"/>
    <path id="Path_6125" data-name="Path 6125" d="M399.23,86.715c1.047-1.542,2.022-2.993,3.017-4.436q12.658-18.428,25.315-36.86a1.683,1.683,0,0,1,1.518-.853q7.792-.233,15.585-.58c.792-.033,1.155.132,1.339.99,1.122,5.12,2.324,10.225,3.488,15.335Q452.6,73.894,455.7,87.478c.076.321.108.655.189,1.174l-17.207-.8c-.363-1.97-.759-3.88-1.056-5.808-.09-.6-.321-.778-.882-.787-1.933-.024-3.866-.09-5.8-.127-3.338-.061-6.671-.085-10-.174a1.5,1.5,0,0,0-1.527.816q-1.435,2.4-3,4.709a1.536,1.536,0,0,1-1.084.618c-5.167-.066-10.333-.184-15.5-.292a4.569,4.569,0,0,1-.6-.094Zm34.894-30.09c-.132-.028-.264-.057-.391-.09q-4.186,8.188-8.377,16.4h11.022c-.759-5.5-1.5-10.9-2.249-16.311Z" transform="translate(-189.509 -9.269)" fill="#17479e"/>
    <path id="Path_6126" data-name="Path 6126" d="M519.511,83.618c2.565-11.408,5.091-22.637,7.632-33.923h-15.75c-.825-3.719-1.664-7.514-2.494-11.271,20.224-1.523,40.287-3.036,60.426-4.554-2.164,3.559-4.309,7.109-6.468,10.654-.688,1.136-1.452,2.23-2.112,3.385a1.572,1.572,0,0,1-1.532.863c-3.2.047-6.4.123-9.6.207-1.428.038-2.862.17-4.295.17-.7,0-.9.325-1.023.915q-1.209,5.7-2.451,11.385-2,9.193-4.007,18.385c-.3,1.391-.65,2.781-.9,4.186-.113.632-.363.844-.981.8-2.192-.165-4.384-.292-6.576-.453-2.621-.184-5.247-.387-7.868-.585-.627-.047-1.249-.108-2.013-.174Z" transform="translate(-247.479 -3.924)" fill="#17479e"/>
  </g>
</svg>
