<svg id="Component_219_1" data-name="Component 219 – 1" xmlns="http://www.w3.org/2000/svg" width="28" height="28" viewBox="0 0 28 28">
  <rect id="Rectangle_10155" data-name="Rectangle 10155" width="28" height="28" fill="transparent"/>
  <g id="Group_20517" data-name="Group 20517" transform="translate(3.199 3.006)">
    <path id="Path_4773" data-name="Path 4773" d="M4.282,9.062a4.781,4.781,0,1,1,0-9.562A5.278,5.278,0,0,1,7.929.96a.353.353,0,0,1-.487.51A4.552,4.552,0,0,0,4.28.205,4.076,4.076,0,1,0,8.355,4.281a.353.353,0,1,1,.705,0A4.783,4.783,0,0,1,4.282,9.062Z" transform="translate(6.211 6.347)" fill="#0632ad"/>
    <path id="Path_4774" data-name="Path 4774" d="M3.124,10.292a.351.351,0,0,1-.157-.037L1.195,9.369A.353.353,0,0,1,1,9.053V6.328a.353.353,0,1,1,.705,0V8.835l1.576.788a.353.353,0,0,1-.158.668ZM3.4,6.34a.353.353,0,0,1-.085-.695L4.674,5.3a.353.353,0,1,1,.171.684L3.482,6.33A.354.354,0,0,1,3.4,6.34Z" transform="translate(9.137 1.915)" fill="#0632ad"/>
    <path id="Ellipse_351" data-name="Ellipse 351" d="M10.464.705a9.4,9.4,0,0,0-3.79.791,9.715,9.715,0,0,0-3.1,2.162,10.105,10.105,0,0,0-2.1,3.215,10.484,10.484,0,0,0,0,7.886,10.105,10.105,0,0,0,2.1,3.215,9.715,9.715,0,0,0,3.1,2.162,9.478,9.478,0,0,0,7.581,0,9.715,9.715,0,0,0,3.1-2.162,10.106,10.106,0,0,0,2.1-3.215,10.484,10.484,0,0,0,0-7.886,10.106,10.106,0,0,0-2.1-3.215,9.715,9.715,0,0,0-3.1-2.162,9.4,9.4,0,0,0-3.79-.791m0-.705A10.644,10.644,0,0,1,20.927,10.816,10.644,10.644,0,0,1,10.464,21.633,10.644,10.644,0,0,1,0,10.816,10.644,10.644,0,0,1,10.464,0Z" transform="translate(0 0)" fill="#0632ad"/>
  </g>
</svg>
