<svg id="Component_218_1" data-name="Component 218 – 1" xmlns="http://www.w3.org/2000/svg" width="28" height="28" viewBox="0 0 28 28">
  <rect id="Rectangle_10154" data-name="Rectangle 10154" width="28" height="28" fill="transparent"/>
  <g id="Group_20516" data-name="Group 20516" transform="translate(3.969 3)">
    <path id="Path_4772" data-name="Path 4772" d="M9.892,17.127a.341.341,0,0,1-.238-.1L7.1,14.552a.342.342,0,0,1,.477-.49l2.316,2.247,5.38-5.217a.342.342,0,1,1,.477.49L10.13,17.031a.341.341,0,0,1-.238.1Z" transform="translate(-0.619 -3.025)" fill="#0632ad" stroke="#0632ad" stroke-width="0.25"/>
    <path id="Ellipse_350" data-name="Ellipse 350" d="M10.816.705A10.114,10.114,0,0,0,6.881,20.133,10.114,10.114,0,0,0,14.752,1.5,10.047,10.047,0,0,0,10.816.705m0-.705A10.816,10.816,0,1,1,0,10.816,10.816,10.816,0,0,1,10.816,0Z" transform="translate(0 0)" fill="#0632ad"/>
  </g>
</svg>
